<svg width="171" height="45" viewBox="0 0 171 45" fill="none" xmlns="http://www.w3.org/2000/svg">
<path d="M20.3574 43.9063H12.4358V11.6804H0.498047V3.61689H32.2674V11.6804H20.3574V43.9063ZM44.593 5.63977C44.593 6.35154 44.4546 7.01648 44.1774 7.63458C43.9191 8.25271 43.5591 8.79589 43.0974 9.26415C42.6356 9.7137 42.0911 10.0789 41.4633 10.3599C40.8537 10.6221 40.1983 10.7532 39.4965 10.7532C38.795 10.7532 38.1301 10.6221 37.5023 10.3599C36.893 10.0789 36.3575 9.7137 35.8959 9.26415C35.4527 8.79589 35.0927 8.25271 34.8156 7.63458C34.5571 7.01648 34.4279 6.35154 34.4279 5.63977C34.4279 4.94676 34.5571 4.29118 34.8156 3.67309C35.0927 3.03623 35.4527 2.49305 35.8959 2.04351C36.3575 1.57525 36.893 1.21002 37.5023 0.947791C38.1301 0.666841 38.795 0.526367 39.4965 0.526367C40.1983 0.526367 40.8537 0.666841 41.4633 0.947791C42.0911 1.21002 42.6356 1.57525 43.0974 2.04351C43.5591 2.49305 43.9191 3.03623 44.1774 3.67309C44.4546 4.29118 44.593 4.94676 44.593 5.63977ZM43.2914 43.9063H35.6743V13.8157H43.2914V43.9063ZM75.0053 19.8001L69.4655 25.4473C69.1887 24.6606 68.8101 23.9582 68.3299 23.3401C67.85 22.7033 67.3054 22.1695 66.6958 21.7387C66.1051 21.3079 65.4588 20.9801 64.7569 20.7553C64.0554 20.5306 63.335 20.4182 62.5965 20.4182C61.5625 20.4182 60.5838 20.6336 59.6607 21.0644C58.7558 21.4952 57.9616 22.1039 57.2787 22.8906C56.6138 23.6586 56.0874 24.5764 55.6998 25.6442C55.3122 26.7117 55.1182 27.8917 55.1182 29.184C55.1182 30.2328 55.3122 31.2164 55.6998 32.1343C56.0874 33.0519 56.6138 33.8575 57.2787 34.5502C57.9616 35.2434 58.7558 35.7866 59.6607 36.1798C60.5838 36.5733 61.5625 36.7698 62.5965 36.7698C63.335 36.7698 64.046 36.667 64.7293 36.461C65.4127 36.255 66.0495 35.9646 66.6406 35.5898C67.2498 35.1966 67.7853 34.7282 68.247 34.185C68.7269 33.6231 69.1149 33.0051 69.4103 32.3307L74.9497 37.9781C74.2482 38.9897 73.4355 39.898 72.5124 40.7032C71.6074 41.5088 70.6197 42.1923 69.5487 42.7543C68.4962 43.3163 67.3791 43.7379 66.1974 44.0187C65.0341 44.3183 63.8338 44.4682 62.5965 44.4682C60.5101 44.4682 58.5436 44.0747 56.697 43.2883C54.869 42.4827 53.2625 41.3872 51.8777 40.0008C50.511 38.6149 49.4309 36.9945 48.6368 35.1402C47.843 33.2859 47.4459 31.3007 47.4459 29.184C47.4459 26.8801 47.843 24.7262 48.6368 22.722C49.4309 20.7179 50.511 18.9759 51.8777 17.4962C53.2625 15.9978 54.869 14.8177 56.697 13.9561C58.5436 13.0945 60.5101 12.6637 62.5965 12.6637C63.8338 12.6637 65.0432 12.8229 66.225 13.1414C67.4253 13.4598 68.5609 13.9281 69.6319 14.5462C70.7214 15.1455 71.7182 15.8854 72.6232 16.7657C73.5463 17.6461 74.3405 18.6575 75.0053 19.8001ZM86.3337 43.9063H78.7166V1.84684H86.3337V28.3693L97.6065 13.8719H106.304L96.4712 26.4025L106.304 43.9063H97.6065L91.5962 32.9771L86.3337 40.0572V43.9063ZM118.214 5.63977C118.214 6.35154 118.075 7.01648 117.798 7.63458C117.54 8.25271 117.18 8.79589 116.718 9.26415C116.257 9.7137 115.712 10.0789 115.084 10.3599C114.475 10.6221 113.819 10.7532 113.117 10.7532C112.416 10.7532 111.751 10.6221 111.123 10.3599C110.514 10.0789 109.978 9.7137 109.517 9.26415C109.074 8.79589 108.714 8.25271 108.436 7.63458C108.178 7.01648 108.049 6.35154 108.049 5.63977C108.049 4.94676 108.178 4.29118 108.436 3.67309C108.714 3.03623 109.074 2.49305 109.517 2.04351C109.978 1.57525 110.514 1.21002 111.123 0.947791C111.751 0.666841 112.416 0.526367 113.117 0.526367C113.819 0.526367 114.475 0.666841 115.084 0.947791C115.712 1.21002 116.257 1.57525 116.718 2.04351C117.18 2.49305 117.54 3.03623 117.798 3.67309C118.075 4.29118 118.214 4.94676 118.214 5.63977ZM116.912 43.9063H109.295V13.8157H116.912V43.9063ZM137.575 43.9063C135.747 43.9063 134.029 43.5599 132.423 42.8667C130.816 42.1551 129.404 41.1904 128.185 39.9728C126.985 38.7365 126.034 37.3037 125.332 35.6742C124.649 34.0447 124.307 32.3027 124.307 30.4484V21.5139H120.624V13.8719H124.307V1.84684H131.841V13.8719H143.308V21.5139H131.841V30.4484C131.841 31.2539 131.989 32.0123 132.284 32.7243C132.58 33.4171 132.986 34.0259 133.503 34.5502C134.02 35.075 134.629 35.4962 135.331 35.8146C136.033 36.1146 136.78 36.2642 137.575 36.2642H143.308V43.9063H137.575ZM170.729 43.9063H145.995L158.487 21.5139H145.995V13.8719H170.729L158.237 36.2642H170.729V43.9063Z" fill="#1D4ED8"/>
</svg>
